<svg width="88" height="88" viewBox="0 0 88 88" fill="none" xmlns="http://www.w3.org/2000/svg">
<rect width="88" height="88" rx="44" fill="#C95D2D"/>
<mask id="mask0_138_226" style="mask-type:alpha" maskUnits="userSpaceOnUse" x="28" y="28" width="32" height="32">
<rect x="28" y="28" width="32" height="32" fill="#D9D9D9"/>
</mask>
<g mask="url(#mask0_138_226)">
<path d="M42.6667 42.667L32 36.0003V49.3337H45.3333V52.0003H32C31.2667 52.0003 30.6389 51.7392 30.1167 51.217C29.5944 50.6948 29.3333 50.067 29.3333 49.3337V33.3337C29.3333 32.6003 29.5944 31.9725 30.1167 31.4503C30.6389 30.9281 31.2667 30.667 32 30.667H53.3333C54.0667 30.667 54.6944 30.9281 55.2167 31.4503C55.7389 31.9725 56 32.6003 56 33.3337V40.0003H53.3333V36.0003L42.6667 42.667ZM42.6667 40.0003L53.3333 33.3337H32L42.6667 40.0003ZM53.3333 57.3337C51.8667 57.3337 50.6111 56.8114 49.5667 55.767C48.5222 54.7225 48 53.467 48 52.0003V46.0003C48 45.067 48.3222 44.2781 48.9667 43.6337C49.6111 42.9892 50.4 42.667 51.3333 42.667C52.2667 42.667 53.0556 42.9892 53.7 43.6337C54.3444 44.2781 54.6667 45.067 54.6667 46.0003V52.0003H52V46.0003C52 45.8225 51.9333 45.667 51.8 45.5337C51.6667 45.4003 51.5111 45.3337 51.3333 45.3337C51.1556 45.3337 51 45.4003 50.8667 45.5337C50.7333 45.667 50.6667 45.8225 50.6667 46.0003V52.0003C50.6667 52.7337 50.9278 53.3614 51.45 53.8837C51.9722 54.4059 52.6 54.667 53.3333 54.667C54.0667 54.667 54.6944 54.4059 55.2167 53.8837C55.7389 53.3614 56 52.7337 56 52.0003V46.667H58.6667V52.0003C58.6667 53.467 58.1444 54.7225 57.1 55.767C56.0556 56.8114 54.8 57.3337 53.3333 57.3337ZM32 36.0003V33.3337V49.3337V36.0003Z" fill="#FEFEFE"/>
</g>
</svg>
