<svg width="38" height="56" viewBox="0 0 38 56" fill="none" xmlns="http://www.w3.org/2000/svg">
<mask id="mask0_148_717" style="mask-type:alpha" maskUnits="userSpaceOnUse" x="0" y="0" width="38" height="38">
<rect width="37.2105" height="37.2105" fill="#D9D9D9"/>
</mask>
<g mask="url(#mask0_148_717)">
<path d="M13.954 32.5592V24.807C12.3519 24.6778 10.7821 24.4969 9.24454 24.2644C7.70702 24.0318 6.17596 23.6959 4.65137 23.2566L5.42659 20.1557C7.57136 20.75 9.74197 21.157 11.9384 21.3767C14.1349 21.5963 16.3572 21.7062 18.6053 21.7062C20.8276 21.7062 23.037 21.5963 25.2334 21.3767C27.4299 21.157 29.6134 20.75 31.784 20.1557L32.5593 23.2566C31.0088 23.6959 29.4648 24.0318 27.9273 24.2644C26.3898 24.4969 24.8329 24.6778 23.2566 24.807V32.5592H13.954ZM18.6053 20.1557C17.7267 20.1557 16.9903 19.8585 16.3959 19.2642C15.8016 18.6699 15.5044 17.9334 15.5044 17.0548C15.5044 16.2021 15.8016 15.4721 16.3959 14.8648C16.9903 14.2576 17.7267 13.954 18.6053 13.954C19.4581 13.954 20.1881 14.2576 20.7953 14.8648C21.4026 15.4721 21.7062 16.2021 21.7062 17.0548C21.7062 17.9334 21.4026 18.6699 20.7953 19.2642C20.1881 19.8585 19.4581 20.1557 18.6053 20.1557ZM6.97703 15.5044C6.30517 15.5044 5.74959 15.2848 5.3103 14.8455C4.87101 14.4062 4.65137 13.8506 4.65137 13.1787C4.65137 12.5327 4.87101 11.9836 5.3103 11.5314C5.74959 11.0792 6.30517 10.8531 6.97703 10.8531C7.62304 10.8531 8.17215 11.0792 8.62437 11.5314C9.07658 11.9836 9.30268 12.5327 9.30268 13.1787C9.30268 13.8506 9.07658 14.4062 8.62437 14.8455C8.17215 15.2848 7.62304 15.5044 6.97703 15.5044ZM30.2336 15.5044C29.5617 15.5044 29.0062 15.2848 28.5669 14.8455C28.1276 14.4062 27.9079 13.8506 27.9079 13.1787C27.9079 12.5327 28.1276 11.9836 28.5669 11.5314C29.0062 11.0792 29.5617 10.8531 30.2336 10.8531C30.8796 10.8531 31.4287 11.0792 31.8809 11.5314C32.3332 11.9836 32.5593 12.5327 32.5593 13.1787C32.5593 13.8506 32.3332 14.4062 31.8809 14.8455C31.4287 15.2848 30.8796 15.5044 30.2336 15.5044ZM11.2407 9.69025C10.5689 9.69025 10.0133 9.47061 9.57401 9.03132C9.13472 8.59203 8.91507 8.03645 8.91507 7.3646C8.91507 6.71858 9.13472 6.16947 9.57401 5.71726C10.0133 5.26504 10.5689 5.03894 11.2407 5.03894C11.8867 5.03894 12.4359 5.26504 12.8881 5.71726C13.3403 6.16947 13.5664 6.71858 13.5664 7.3646C13.5664 8.03645 13.3403 8.59203 12.8881 9.03132C12.4359 9.47061 11.8867 9.69025 11.2407 9.69025ZM25.9699 9.69025C25.298 9.69025 24.7425 9.47061 24.3032 9.03132C23.8639 8.59203 23.6442 8.03645 23.6442 7.3646C23.6442 6.71858 23.8639 6.16947 24.3032 5.71726C24.7425 5.26504 25.298 5.03894 25.9699 5.03894C26.6159 5.03894 27.165 5.26504 27.6172 5.71726C28.0694 6.16947 28.2956 6.71858 28.2956 7.3646C28.2956 8.03645 28.0694 8.59203 27.6172 9.03132C27.165 9.47061 26.6159 9.69025 25.9699 9.69025ZM18.6053 7.75221C17.9335 7.75221 17.3779 7.53256 16.9386 7.09327C16.4993 6.65398 16.2797 6.09841 16.2797 5.42655C16.2797 4.78053 16.4993 4.23142 16.9386 3.77921C17.3779 3.327 17.9335 3.10089 18.6053 3.10089C19.2513 3.10089 19.8004 3.327 20.2527 3.77921C20.7049 4.23142 20.931 4.78053 20.931 5.42655C20.931 6.09841 20.7049 6.65398 20.2527 7.09327C19.8004 7.53256 19.2513 7.75221 18.6053 7.75221Z" fill="#FFF9EF"/>
</g>
<path d="M12.0936 44.6371C12.0298 44.5945 11.9447 44.5573 11.8384 44.5254C11.7321 44.4829 11.5726 44.4616 11.36 44.4616C11.1261 44.4616 10.8656 44.4935 10.5786 44.5573C10.3022 44.6211 10.0364 44.6955 9.78121 44.7806C9.52605 44.8656 9.31342 44.9454 9.14331 45.0198C8.98384 45.0942 8.9041 45.1474 8.9041 45.1793C8.9041 45.2537 8.98916 45.3334 9.15926 45.4185C9.32937 45.5035 9.542 45.6045 9.79716 45.7215C10.0629 45.8278 10.3394 45.9554 10.6264 46.1042C10.9241 46.2531 11.1952 46.4232 11.4397 46.6145C11.5035 46.6571 11.5354 46.7528 11.5354 46.9016C11.5354 47.1461 11.4557 47.4279 11.2962 47.7468C10.9135 48.491 10.4191 49.1661 9.8131 49.7721C9.21773 50.3888 8.55858 50.9203 7.83563 51.3669C7.12331 51.8134 6.39505 52.1589 5.65084 52.4034C4.90663 52.648 4.20494 52.7702 3.54579 52.7702C3.00358 52.7702 2.51452 52.6799 2.07863 52.4991C1.65336 52.3184 1.31847 52.0313 1.07394 51.638C0.818786 51.2552 0.691207 50.7609 0.691207 50.1549C0.691207 49.6339 0.824101 49.0545 1.08989 48.4166C1.15368 48.3953 1.20684 48.3847 1.24936 48.3847C1.31315 48.3847 1.38226 48.4166 1.45668 48.4804C1.43542 48.5867 1.41947 48.693 1.40884 48.7993C1.39821 48.9056 1.39289 49.0066 1.39289 49.1023C1.39289 49.8784 1.62679 50.4419 2.09458 50.7928C2.573 51.1542 3.16837 51.335 3.88068 51.335C4.41226 51.335 4.97042 51.2446 5.55515 51.0639C6.15052 50.8938 6.73526 50.6439 7.30937 50.3143C7.88347 49.9848 8.40973 49.5861 8.88816 49.1183C9.36658 48.6611 9.75995 48.1455 10.0683 47.5714C10.0895 47.5182 10.1055 47.4704 10.1161 47.4279C10.1267 47.3853 10.1055 47.3481 10.0523 47.3162C9.69084 47.0823 9.35063 46.9016 9.03168 46.774C8.71273 46.6358 8.30342 46.487 7.80373 46.3275C7.69742 46.1574 7.62831 45.9394 7.59642 45.6736C7.56452 45.3972 7.54858 45.1261 7.54858 44.8603C8.40973 44.3606 9.21773 43.9407 9.97258 43.6005C10.7274 43.2496 11.4078 43.0742 12.0138 43.0742C12.2265 43.0742 12.3966 43.1008 12.5242 43.154C12.6624 43.1965 12.7899 43.2709 12.9069 43.3772C12.9069 43.5473 12.8218 43.7706 12.6517 44.047C12.4923 44.3128 12.3062 44.5095 12.0936 44.6371ZM2.33379 55.1304C2.27 54.9284 2.23279 54.6999 2.22215 54.4447C2.22215 54.1895 2.25936 53.8759 2.33379 53.5038C2.65273 53.4294 2.9451 53.3869 3.21089 53.3762C3.47668 53.3762 3.68931 53.4081 3.84879 53.4719C3.97637 53.844 3.97637 54.3809 3.84879 55.0826C3.5511 55.157 3.25873 55.1942 2.97168 55.1942C2.68463 55.1942 2.472 55.173 2.33379 55.1304ZM4.56642 54.9072C4.50263 54.7052 4.46542 54.4766 4.45479 54.2214C4.45479 53.9663 4.492 53.6526 4.56642 53.2805C4.88537 53.2061 5.17773 53.1636 5.44352 53.153C5.70931 53.153 5.92194 53.1849 6.08142 53.2486C6.209 53.6208 6.209 54.1576 6.08142 54.8593C5.78373 54.9338 5.49137 54.971 5.20431 54.971C4.91726 54.971 4.70463 54.9497 4.56642 54.9072ZM18.4346 45.4982C18.424 45.4344 18.3815 45.4025 18.3071 45.4025C17.6373 45.4025 17.0844 45.376 16.6485 45.3228C16.2126 45.259 15.8618 45.1368 15.596 44.956C15.3409 44.7753 15.1442 44.5148 15.006 44.1746C14.8678 43.8238 14.7614 43.3666 14.687 42.8031C14.6232 42.229 14.5594 41.522 14.4956 40.6821C14.4956 40.6077 14.5169 40.5492 14.5594 40.5067C14.602 40.4642 14.6498 40.427 14.703 40.3951C14.8412 40.3313 14.9741 40.2834 15.1016 40.2515C15.2292 40.2196 15.4419 40.2037 15.7395 40.2037C15.7183 40.5971 15.697 40.9958 15.6758 41.3998C15.6545 41.7931 15.6439 42.128 15.6439 42.4044C15.6439 42.8403 15.6758 43.1646 15.7395 43.3772C15.814 43.5899 15.9415 43.7281 16.1223 43.7919C16.3136 43.845 16.5741 43.8716 16.9037 43.8716C17.1801 43.8716 17.515 43.8556 17.9084 43.8238C18.3124 43.7919 18.7855 43.76 19.3277 43.7281C19.3915 44.047 19.4287 44.3925 19.4393 44.7646C19.45 45.1261 19.4553 45.4929 19.4553 45.865C19.4553 46.471 19.4021 46.9016 19.2958 47.1568C19.1895 47.4119 18.9715 47.5395 18.642 47.5395C18.3868 47.5395 18.2167 47.5395 18.1316 47.5395C18.0572 47.5395 18.0094 47.5395 17.9881 47.5395C17.9669 47.5395 17.9243 47.5395 17.8605 47.5395C17.8074 47.5395 17.6745 47.5395 17.4619 47.5395C17.2492 47.5395 16.9037 47.5395 16.4253 47.5395C16.2764 47.5395 16.1648 47.6299 16.0904 47.8106C16.0266 47.9913 15.9841 48.3262 15.9628 48.8153C15.9415 49.3043 15.9203 50.0166 15.899 50.9522C15.899 51.1011 15.8246 51.1914 15.6758 51.2233C15.5375 51.2659 15.4153 51.2871 15.309 51.2871C15.2345 50.5961 15.1708 49.9901 15.1176 49.4691C15.0751 48.9588 15.0538 48.5176 15.0538 48.1455C15.0538 47.6458 15.107 47.2578 15.2133 46.9813C15.3196 46.6943 15.495 46.487 15.7395 46.3594C15.9947 46.2318 16.3402 46.1521 16.7761 46.1202C17.212 46.0776 17.7542 46.0564 18.4028 46.0564C18.4665 46.0564 18.4984 46.0032 18.4984 45.8969C18.4984 45.8012 18.4772 45.6683 18.4346 45.4982ZM26.1638 45.7215C26.1638 45.5939 26.1425 45.3972 26.1 45.1314C26.0574 44.855 26.0043 44.5733 25.9405 44.2862C25.8767 43.9992 25.8076 43.7546 25.7332 43.5526C25.6588 43.34 25.595 43.2337 25.5418 43.2337C25.478 43.2337 25.3558 43.3294 25.175 43.5208C25.0049 43.7015 24.8082 43.9301 24.585 44.2065C24.3723 44.4723 24.165 44.7434 23.963 45.0198C23.761 45.2962 23.6016 45.5248 23.4846 45.7055C23.4314 45.7906 23.4049 45.8544 23.4049 45.8969C23.4049 46.0032 23.6122 46.067 24.0268 46.0883C24.4414 46.0989 24.9996 46.1042 25.7013 46.1042C25.8927 46.1042 26.0149 46.0723 26.0681 46.0085C26.1319 45.9341 26.1638 45.8384 26.1638 45.7215ZM27.2003 45.4823C27.2322 45.7693 27.2748 45.9448 27.3279 46.0085C27.3811 46.0723 27.498 46.1042 27.6788 46.1042H28.7951V47.5395H27.4077C27.3013 47.5395 27.2269 47.5767 27.1844 47.6511C27.1525 47.7255 27.11 47.8531 27.0568 48.0339C27.0037 48.2571 26.9505 48.4538 26.8973 48.6239C26.8442 48.794 26.7751 48.9056 26.69 48.9588C25.9352 49.5223 25.1431 50.0911 24.3139 50.6652C23.4846 51.2393 22.5756 51.8346 21.5869 52.4513C20.6088 53.0679 19.519 53.7271 18.3177 54.4288C18.2645 54.3756 18.222 54.3278 18.1901 54.2852C18.1582 54.2427 18.1422 54.1842 18.1422 54.1098C18.8439 53.5782 19.5722 53.0201 20.327 52.4353C21.0819 51.8506 21.8101 51.2659 22.5118 50.6811C23.2135 50.107 23.8408 49.5595 24.3936 49.0385C24.9571 48.5176 25.393 48.0604 25.7013 47.6671C25.7544 47.6139 25.781 47.5767 25.781 47.5554C25.781 47.5342 25.7172 47.5235 25.5897 47.5235C24.8561 47.5342 24.1863 47.5395 23.5803 47.5395C22.9849 47.5395 22.3417 47.5395 21.6507 47.5395C21.555 47.3588 21.4912 47.1568 21.4593 46.9335C21.438 46.6996 21.4274 46.4551 21.4274 46.1999C21.5443 45.9979 21.7251 45.7374 21.9696 45.4185C22.2141 45.0889 22.4906 44.7381 22.7989 44.366C23.1178 43.9939 23.4368 43.6271 23.7557 43.2656C24.0853 42.9041 24.3883 42.5852 24.6647 42.3088C24.9411 42.0323 25.1644 41.8303 25.3345 41.7028C25.5046 41.6283 25.6907 41.5592 25.8927 41.4954C26.1053 41.4316 26.2754 41.3998 26.403 41.3998C26.5199 41.3998 26.5837 41.4263 26.5943 41.4795C26.7432 42.0642 26.8601 42.7128 26.9452 43.4251C27.0409 44.1374 27.1259 44.8231 27.2003 45.4823ZM28.1549 47.5395V46.1042H29.1915C29.436 46.1042 29.6115 46.067 29.7178 45.9926C29.8347 45.9182 29.9091 45.764 29.941 45.5301C29.9729 45.2962 29.9889 44.9454 29.9889 44.4776C29.9889 43.744 30.0952 43.1486 30.3078 42.6915C30.5311 42.2343 30.8075 41.8994 31.1371 41.6868C31.4773 41.4635 31.8228 41.3519 32.1737 41.3519C32.5351 41.3519 32.87 41.4582 33.1784 41.6709C33.4973 41.8835 33.7578 42.2131 33.9598 42.6596C34.1618 43.0955 34.2628 43.6696 34.2628 44.3819C34.2628 45.3069 34.1511 46.067 33.9279 46.6624C33.7046 47.2471 33.3325 47.5395 32.8116 47.5395H28.1549ZM30.9138 44.5254C30.9138 45.1421 30.9936 45.562 31.153 45.7853C31.3231 45.9979 31.6315 46.1042 32.078 46.1042C32.5245 46.1042 32.8381 46.0139 33.0189 45.8331C33.2103 45.6524 33.3059 45.2484 33.3059 44.6211C33.3059 44.0789 33.189 43.6696 32.9551 43.3932C32.7212 43.1168 32.4448 42.9785 32.1258 42.9785C31.8281 42.9785 31.5517 43.1008 31.2966 43.3453C31.0414 43.5792 30.9138 43.9726 30.9138 44.5254Z" fill="#FFF9EF"/>
</svg>
