<svg width="138" height="240" viewBox="0 0 138 240" fill="none" xmlns="http://www.w3.org/2000/svg">
<mask id="mask0_114_471" style="mask-type:alpha" maskUnits="userSpaceOnUse" x="0" y="0" width="138" height="138">
<rect x="0.5" width="137.143" height="137.143" fill="#D9D9D9"/>
</mask>
<g mask="url(#mask0_114_471)">
<path d="M51.9283 120V91.4282C46.0235 90.952 40.2378 90.2854 34.5711 89.4282C28.9045 88.5711 23.2616 87.333 17.6426 85.7139L20.4997 74.2854C28.4045 76.4758 36.4045 77.9758 44.4997 78.7854C52.595 79.5949 60.7854 79.9996 69.0711 79.9996C77.2616 79.9996 85.4045 79.5949 93.4997 78.7854C101.595 77.9758 109.643 76.4758 117.643 74.2854L120.5 85.7139C114.785 87.333 109.095 88.5711 103.428 89.4282C97.7616 90.2854 92.0235 90.952 86.214 91.4282V120H51.9283ZM69.0711 74.2854C65.833 74.2854 63.1188 73.1901 60.9283 70.9996C58.7378 68.8092 57.6426 66.0949 57.6426 62.8568C57.6426 59.7139 58.7378 57.0235 60.9283 54.7854C63.1188 52.5473 65.833 51.4282 69.0711 51.4282C72.214 51.4282 74.9045 52.5473 77.1426 54.7854C79.3807 57.0235 80.4997 59.7139 80.4997 62.8568C80.4997 66.0949 79.3807 68.8092 77.1426 70.9996C74.9045 73.1901 72.214 74.2854 69.0711 74.2854ZM26.214 57.1425C23.7378 57.1425 21.6902 56.333 20.0711 54.7139C18.4521 53.0949 17.6426 51.0473 17.6426 48.5711C17.6426 46.1901 18.4521 44.1663 20.0711 42.4996C21.6902 40.833 23.7378 39.9996 26.214 39.9996C28.595 39.9996 30.6188 40.833 32.2854 42.4996C33.9521 44.1663 34.7854 46.1901 34.7854 48.5711C34.7854 51.0473 33.9521 53.0949 32.2854 54.7139C30.6188 56.333 28.595 57.1425 26.214 57.1425ZM111.928 57.1425C109.452 57.1425 107.404 56.333 105.785 54.7139C104.166 53.0949 103.357 51.0473 103.357 48.5711C103.357 46.1901 104.166 44.1663 105.785 42.4996C107.404 40.833 109.452 39.9996 111.928 39.9996C114.309 39.9996 116.333 40.833 118 42.4996C119.666 44.1663 120.5 46.1901 120.5 48.5711C120.5 51.0473 119.666 53.0949 118 54.7139C116.333 56.333 114.309 57.1425 111.928 57.1425ZM41.9283 35.7139C39.4521 35.7139 37.4045 34.9044 35.7854 33.2854C34.1664 31.6663 33.3569 29.6187 33.3569 27.1425C33.3569 24.7616 34.1664 22.7377 35.7854 21.0711C37.4045 19.4044 39.4521 18.5711 41.9283 18.5711C44.3092 18.5711 46.333 19.4044 47.9997 21.0711C49.6664 22.7377 50.4997 24.7616 50.4997 27.1425C50.4997 29.6187 49.6664 31.6663 47.9997 33.2854C46.333 34.9044 44.3092 35.7139 41.9283 35.7139ZM96.214 35.7139C93.7378 35.7139 91.6902 34.9044 90.0711 33.2854C88.4521 31.6663 87.6426 29.6187 87.6426 27.1425C87.6426 24.7616 88.4521 22.7377 90.0711 21.0711C91.6902 19.4044 93.7378 18.5711 96.214 18.5711C98.5949 18.5711 100.619 19.4044 102.285 21.0711C103.952 22.7377 104.785 24.7616 104.785 27.1425C104.785 29.6187 103.952 31.6663 102.285 33.2854C100.619 34.9044 98.5949 35.7139 96.214 35.7139ZM69.0711 28.5711C66.595 28.5711 64.5473 27.7616 62.9283 26.1425C61.3092 24.5235 60.4997 22.4758 60.4997 19.9997C60.4997 17.6187 61.3092 15.5949 62.9283 13.9282C64.5473 12.2616 66.595 11.4282 69.0711 11.4282C71.4521 11.4282 73.4759 12.2616 75.1426 13.9282C76.8092 15.5949 77.6426 17.6187 77.6426 19.9997C77.6426 22.4758 76.8092 24.5235 75.1426 26.1425C73.4759 27.7616 71.4521 28.5711 69.0711 28.5711Z" fill="#FFF9EF"/>
</g>
<path d="M45.0714 164.343C44.8363 164.187 44.5228 164.05 44.131 163.932C43.7392 163.775 43.1514 163.697 42.3677 163.697C41.5057 163.697 40.5457 163.814 39.4877 164.05C38.469 164.285 37.4894 164.559 36.549 164.872C35.6086 165.186 34.8249 165.48 34.1979 165.754C33.6102 166.028 33.3163 166.224 33.3163 166.342C33.3163 166.616 33.6298 166.91 34.2567 167.223C34.8837 167.537 35.6673 167.909 36.6077 168.34C37.5873 168.732 38.6061 169.202 39.6641 169.751C40.7612 170.299 41.7604 170.926 42.6616 171.632C42.8967 171.788 43.0143 172.141 43.0143 172.69C43.0143 173.591 42.7204 174.629 42.1326 175.805C40.722 178.547 38.9 181.036 36.6665 183.269C34.4722 185.542 32.0428 187.501 29.3784 189.147C26.7531 190.792 24.069 192.066 21.3261 192.967C18.5833 193.868 15.9971 194.319 13.5677 194.319C11.5694 194.319 9.76693 193.986 8.1604 193.32C6.59305 192.654 5.35877 191.596 4.45754 190.146C3.51713 188.735 3.04693 186.913 3.04693 184.68C3.04693 182.76 3.53672 180.624 4.51632 178.273C4.75142 178.195 4.94734 178.156 5.10407 178.156C5.33917 178.156 5.59387 178.273 5.86815 178.508C5.78979 178.9 5.73101 179.292 5.69183 179.684C5.65264 180.076 5.63305 180.448 5.63305 180.801C5.63305 183.661 6.49509 185.738 8.21917 187.031C9.98244 188.363 12.1767 189.029 14.802 189.029C16.7612 189.029 18.8184 188.696 20.9735 188.03C23.1677 187.403 25.3228 186.482 27.4388 185.267C29.5547 184.053 31.4943 182.583 33.2575 180.859C35.0208 179.174 36.4706 177.274 37.6069 175.158C37.6853 174.962 37.7441 174.786 37.7833 174.629C37.8224 174.472 37.7441 174.335 37.5482 174.218C36.2159 173.356 34.962 172.69 33.7865 172.219C32.611 171.71 31.1024 171.161 29.2608 170.574C28.869 169.947 28.6143 169.143 28.4967 168.164C28.3792 167.145 28.3204 166.146 28.3204 165.166C31.4943 163.325 34.4722 161.777 37.2543 160.523C40.0363 159.23 42.5441 158.583 44.7775 158.583C45.5612 158.583 46.1882 158.681 46.6584 158.877C47.1677 159.034 47.6379 159.308 48.069 159.7C48.069 160.327 47.7555 161.15 47.1286 162.169C46.5408 163.148 45.8551 163.873 45.0714 164.343ZM9.10081 203.018C8.8657 202.273 8.72856 201.431 8.68938 200.49C8.68938 199.55 8.82652 198.394 9.10081 197.023C10.2763 196.748 11.3539 196.592 12.3335 196.552C13.3131 196.552 14.0967 196.67 14.6845 196.905C15.1547 198.276 15.1547 200.255 14.6845 202.841C13.5873 203.116 12.5098 203.253 11.4518 203.253C10.3939 203.253 9.61019 203.174 9.10081 203.018ZM17.3294 202.195C17.0943 201.45 16.9571 200.608 16.9179 199.667C16.9179 198.727 17.0551 197.571 17.3294 196.2C18.5049 195.925 19.5824 195.769 20.562 195.73C21.5416 195.73 22.3253 195.847 22.9131 196.082C23.3833 197.454 23.3833 199.432 22.9131 202.018C21.8159 202.293 20.7384 202.43 19.6804 202.43C18.6224 202.43 17.8388 202.352 17.3294 202.195ZM68.442 167.517C68.4028 167.282 68.2461 167.165 67.9718 167.165C65.5033 167.165 63.4657 167.067 61.8592 166.871C60.2526 166.636 58.9596 166.185 57.98 165.519C57.0396 164.853 56.3147 163.893 55.8053 162.639C55.2959 161.346 54.9041 159.661 54.6298 157.584C54.3947 155.468 54.1596 152.863 53.9245 149.767C53.9245 149.493 54.0028 149.277 54.1596 149.121C54.3163 148.964 54.4926 148.827 54.6886 148.709C55.1979 148.474 55.6877 148.298 56.1579 148.18C56.6281 148.063 57.4118 148.004 58.509 148.004C58.4306 149.454 58.3522 150.923 58.2739 152.412C58.1955 153.862 58.1563 155.096 58.1563 156.115C58.1563 157.721 58.2739 158.916 58.509 159.7C58.7833 160.484 59.2535 160.993 59.9196 161.228C60.6249 161.424 61.5849 161.522 62.7996 161.522C63.8184 161.522 65.0526 161.463 66.5024 161.346C67.9914 161.228 69.7351 161.111 71.7335 160.993C71.9686 162.169 72.1057 163.442 72.1449 164.814C72.1841 166.146 72.2037 167.498 72.2037 168.869C72.2037 171.103 72.0077 172.69 71.6159 173.63C71.2241 174.57 70.4208 175.041 69.2061 175.041C68.2657 175.041 67.6388 175.041 67.3253 175.041C67.051 175.041 66.8747 175.041 66.7963 175.041C66.7179 175.041 66.5612 175.041 66.3261 175.041C66.1302 175.041 65.6404 175.041 64.8567 175.041C64.073 175.041 62.7996 175.041 61.0363 175.041C60.4877 175.041 60.0763 175.374 59.802 176.04C59.5669 176.706 59.4102 177.94 59.3318 179.743C59.2535 181.545 59.1751 184.17 59.0967 187.618C59.0967 188.167 58.8224 188.5 58.2739 188.618C57.7645 188.774 57.3139 188.853 56.922 188.853C56.6477 186.306 56.4126 184.072 56.2167 182.152C56.06 180.272 55.9816 178.645 55.9816 177.274C55.9816 175.432 56.1775 174.002 56.5694 172.983C56.9612 171.925 57.6077 171.161 58.509 170.691C59.4494 170.221 60.7228 169.927 62.3294 169.81C63.9359 169.653 65.9343 169.574 68.3245 169.574C68.5596 169.574 68.6771 169.378 68.6771 168.987C68.6771 168.634 68.5988 168.144 68.442 167.517ZM96.9284 168.34C96.9284 167.87 96.85 167.145 96.6933 166.165C96.5365 165.147 96.3406 164.108 96.1055 163.05C95.8704 161.992 95.6157 161.091 95.3414 160.347C95.0672 159.563 94.8321 159.171 94.6361 159.171C94.401 159.171 93.9504 159.524 93.2843 160.229C92.6574 160.895 91.9325 161.738 91.1096 162.756C90.3259 163.736 89.5619 164.735 88.8174 165.754C88.0729 166.773 87.4851 167.615 87.0541 168.281C86.8582 168.595 86.7602 168.83 86.7602 168.987C86.7602 169.378 87.5243 169.614 89.0525 169.692C90.5806 169.731 92.6378 169.751 95.2239 169.751C95.9292 169.751 96.3798 169.633 96.5757 169.398C96.8108 169.124 96.9284 168.771 96.9284 168.34ZM100.749 167.458C100.866 168.516 101.023 169.163 101.219 169.398C101.415 169.633 101.846 169.751 102.512 169.751H106.626V175.041H101.513C101.121 175.041 100.847 175.178 100.69 175.452C100.572 175.726 100.416 176.196 100.22 176.863C100.024 177.685 99.828 178.41 99.6321 179.037C99.4361 179.664 99.1814 180.076 98.868 180.272C96.0859 182.348 93.1668 184.445 90.1104 186.561C87.0541 188.676 83.7039 190.871 80.0598 193.143C76.4549 195.416 72.4386 197.845 68.0108 200.432C67.8149 200.236 67.6582 200.059 67.5406 199.903C67.4231 199.746 67.3643 199.53 67.3643 199.256C69.9504 197.297 72.6345 195.24 75.4165 193.085C78.1986 190.93 80.8827 188.774 83.4688 186.619C86.0549 184.503 88.3668 182.485 90.4043 180.565C92.481 178.645 94.0876 176.961 95.2239 175.511C95.4198 175.315 95.5178 175.178 95.5178 175.099C95.5178 175.021 95.2827 174.982 94.8125 174.982C92.1088 175.021 89.6402 175.041 87.4068 175.041C85.2125 175.041 82.8419 175.041 80.2949 175.041C79.9423 174.374 79.7072 173.63 79.5896 172.807C79.5112 171.945 79.4721 171.044 79.4721 170.103C79.9031 169.359 80.5692 168.399 81.4704 167.223C82.3717 166.009 83.3904 164.716 84.5268 163.344C85.7023 161.973 86.8778 160.621 88.0533 159.289C89.268 157.956 90.3847 156.781 91.4035 155.762C92.4223 154.743 93.2451 153.999 93.8721 153.529C94.499 153.254 95.1847 153 95.9292 152.765C96.7129 152.53 97.3398 152.412 97.81 152.412C98.241 152.412 98.4761 152.51 98.5153 152.706C99.0639 154.861 99.4949 157.251 99.8084 159.876C100.161 162.502 100.475 165.029 100.749 167.458ZM104.267 175.041V169.751H108.087C108.989 169.751 109.635 169.614 110.027 169.339C110.458 169.065 110.732 168.497 110.85 167.635C110.967 166.773 111.026 165.48 111.026 163.756C111.026 161.052 111.418 158.858 112.202 157.173C113.025 155.488 114.043 154.254 115.258 153.47C116.512 152.647 117.785 152.236 119.078 152.236C120.411 152.236 121.645 152.627 122.781 153.411C123.957 154.195 124.917 155.41 125.661 157.055C126.406 158.662 126.778 160.778 126.778 163.403C126.778 166.812 126.367 169.614 125.544 171.808C124.721 173.963 123.349 175.041 121.429 175.041H104.267ZM114.435 163.932C114.435 166.205 114.729 167.752 115.317 168.575C115.944 169.359 117.08 169.751 118.726 169.751C120.372 169.751 121.527 169.418 122.194 168.752C122.899 168.085 123.252 166.596 123.252 164.285C123.252 162.286 122.821 160.778 121.958 159.759C121.096 158.74 120.078 158.231 118.902 158.231C117.805 158.231 116.786 158.681 115.846 159.583C114.905 160.445 114.435 161.894 114.435 163.932Z" fill="#FFF9EF"/>
<path d="M17.8388 213.347L19.0878 214.767C18.2714 216.498 17.4796 218.155 16.7122 219.739C15.9612 221.322 15.2102 222.931 14.4592 224.563C13.7245 226.18 12.9735 227.902 12.2061 229.731H11.4959L11.9612 226.865C12.6143 225.576 13.2429 224.253 13.8469 222.898C14.4673 221.527 15.1041 220.065 15.7571 218.514C16.4102 216.947 17.1041 215.225 17.8388 213.347ZM5.49592 214.62C5.43061 215.567 5.35714 216.612 5.27551 217.755C5.2102 218.882 5.1449 220.057 5.07959 221.282C5.03061 222.49 4.9898 223.69 4.95714 224.882C4.92449 226.074 4.90816 227.2 4.90816 228.261L7.38163 228.776L7.11224 229.51C6.50816 229.478 5.96939 229.461 5.49592 229.461C5.02245 229.445 4.46735 229.437 3.83061 229.437C2.73673 229.437 1.75714 229.461 0.891837 229.51L0.622449 228.776L3.07143 228.261C3.25102 226.808 3.39796 225.282 3.51224 223.682C3.64286 222.065 3.74898 220.474 3.83061 218.906C3.91224 217.339 3.96122 215.91 3.97755 214.62L1.65102 214.106L1.9449 213.347C2.35306 213.363 2.73673 213.38 3.09592 213.396C3.47143 213.412 3.96122 213.42 4.56531 213.42C4.9898 213.42 5.33265 213.412 5.59388 213.396C5.87143 213.38 6.20612 213.363 6.59796 213.347C7.49592 215.371 8.44286 217.51 9.43877 219.763C10.4347 222 11.4633 224.131 12.5245 226.155L12.2061 229.731H11.4959C10.8102 228.212 10.1816 226.833 9.6102 225.592C9.03877 224.335 8.49184 223.151 7.96939 222.041C7.46326 220.931 6.94082 219.812 6.40204 218.686C5.87959 217.559 5.32449 216.351 4.73673 215.061L5.49592 214.62ZM22.051 213.347L22.3204 214.106L20.1653 214.62C20.2633 216.008 20.3449 217.257 20.4102 218.367C20.4918 219.461 20.5653 220.514 20.6306 221.527C20.6959 222.522 20.7612 223.559 20.8265 224.637C20.9082 225.698 20.998 226.906 21.0959 228.261L23.2755 228.776L22.9816 229.51C22.5571 229.478 22.1 229.461 21.6102 229.461C21.1367 229.445 20.6061 229.437 20.0184 229.437C19.4633 229.437 18.9245 229.445 18.402 229.461C17.8959 229.478 17.398 229.494 16.9082 229.51L16.6633 228.776L18.8429 228.261C18.7775 226.498 18.7041 224.882 18.6224 223.412C18.5408 221.927 18.4429 220.482 18.3286 219.078C18.2143 217.657 18.0755 216.171 17.9122 214.62L17.8388 213.347C18.198 213.363 18.549 213.38 18.8918 213.396C19.2347 213.396 19.5775 213.396 19.9204 213.396C20.2633 213.396 20.6143 213.396 20.9735 213.396C21.3327 213.38 21.6918 213.363 22.051 213.347ZM29.5788 229.78C28.4196 229.78 27.4563 229.518 26.689 228.996C25.9216 228.474 25.342 227.796 24.9502 226.963C24.5747 226.131 24.3869 225.265 24.3869 224.367C24.3869 223.453 24.5828 222.58 24.9747 221.747C25.3665 220.898 25.9461 220.204 26.7135 219.665C27.4971 219.127 28.4604 218.857 29.6033 218.857C30.7624 218.857 31.7175 219.118 32.4686 219.641C33.2359 220.163 33.8073 220.841 34.1828 221.674C34.5584 222.49 34.7461 223.355 34.7461 224.269C34.7461 225.184 34.5502 226.065 34.1584 226.914C33.7828 227.747 33.2114 228.433 32.4441 228.971C31.6767 229.51 30.7216 229.78 29.5788 229.78ZM29.8971 228.751C30.4522 228.751 30.9094 228.563 31.2686 228.188C31.6441 227.796 31.9216 227.298 32.1012 226.694C32.2808 226.074 32.3706 225.42 32.3706 224.735C32.3706 223.951 32.2563 223.192 32.0277 222.457C31.7992 221.722 31.4481 221.118 30.9747 220.645C30.5175 220.155 29.9461 219.91 29.2604 219.91C28.7053 219.91 28.24 220.106 27.8645 220.498C27.5053 220.874 27.2359 221.363 27.0563 221.967C26.8767 222.571 26.7869 223.225 26.7869 223.927C26.7869 224.694 26.9012 225.453 27.1298 226.204C27.3747 226.939 27.7257 227.551 28.1828 228.041C28.64 228.514 29.2114 228.751 29.8971 228.751ZM41.5606 229.78C40.4014 229.78 39.4381 229.518 38.6708 228.996C37.9034 228.474 37.3238 227.796 36.932 226.963C36.5565 226.131 36.3687 225.265 36.3687 224.367C36.3687 223.453 36.5647 222.58 36.9565 221.747C37.3483 220.898 37.9279 220.204 38.6953 219.665C39.4789 219.127 40.4422 218.857 41.5851 218.857C42.7443 218.857 43.6994 219.118 44.4504 219.641C45.2177 220.163 45.7892 220.841 46.1647 221.674C46.5402 222.49 46.7279 223.355 46.7279 224.269C46.7279 225.184 46.532 226.065 46.1402 226.914C45.7647 227.747 45.1932 228.433 44.4259 228.971C43.6585 229.51 42.7034 229.78 41.5606 229.78ZM41.8789 228.751C42.4341 228.751 42.8912 228.563 43.2504 228.188C43.6259 227.796 43.9034 227.298 44.083 226.694C44.2626 226.074 44.3524 225.42 44.3524 224.735C44.3524 223.951 44.2381 223.192 44.0096 222.457C43.781 221.722 43.43 221.118 42.9565 220.645C42.4994 220.155 41.9279 219.91 41.2422 219.91C40.6871 219.91 40.2218 220.106 39.8463 220.498C39.4871 220.874 39.2177 221.363 39.0381 221.967C38.8585 222.571 38.7687 223.225 38.7687 223.927C38.7687 224.694 38.883 225.453 39.1116 226.204C39.3565 226.939 39.7075 227.551 40.1647 228.041C40.6218 228.514 41.1932 228.751 41.8789 228.751ZM58.3424 211.265C58.3261 212.49 58.3097 213.731 58.2934 214.988C58.2771 216.245 58.2689 217.584 58.2689 219.004C58.2689 220.261 58.2689 221.486 58.2689 222.678C58.2853 223.853 58.3016 224.931 58.3179 225.91C58.3506 226.874 58.3832 227.682 58.4159 228.335L60.3506 228.849L60.0812 229.51C59.6404 229.478 59.2485 229.461 58.9057 229.461C58.5628 229.461 58.2281 229.461 57.9016 229.461C57.673 229.461 57.4444 229.469 57.2159 229.486C57.0036 229.502 56.7832 229.518 56.5546 229.535C56.5057 229.159 56.4485 228.792 56.3832 228.433C56.3179 228.074 56.2689 227.714 56.2363 227.355C56.2689 226.522 56.2853 225.706 56.2853 224.906C56.2853 224.09 56.2853 223.274 56.2853 222.457C56.2853 222.163 56.2771 221.861 56.2608 221.551C56.2608 221.225 56.2608 220.89 56.2608 220.547C56.2608 219.796 56.2608 219.045 56.2608 218.294C56.2608 217.543 56.2526 216.727 56.2363 215.845C56.2363 214.947 56.2118 213.927 56.1628 212.784L54.3995 212.465L54.1302 211.731C54.7016 211.698 55.3628 211.657 56.1138 211.608C56.8648 211.543 57.6077 211.429 58.3424 211.265ZM53.1016 218.857C53.9506 218.857 54.7424 219.11 55.4771 219.616C56.2281 220.106 56.7587 220.865 57.0689 221.894L56.2853 222.751C56.2363 222.294 56.024 221.853 55.6485 221.429C55.273 221.004 54.8077 220.661 54.2526 220.4C53.6975 220.122 53.1179 220.008 52.5138 220.057C51.9261 220.367 51.4934 220.89 51.2159 221.625C50.9383 222.359 50.7995 223.135 50.7995 223.951C50.7995 224.669 50.9057 225.363 51.1179 226.033C51.3302 226.702 51.6485 227.249 52.073 227.674C52.4975 228.098 53.02 228.31 53.6404 228.31C54.5383 228.31 55.2975 227.91 55.9179 227.11C56.5546 226.31 57.0118 225.249 57.2893 223.927L57.8036 225.078C57.4444 226.449 56.8567 227.559 56.0404 228.408C55.224 229.257 54.2118 229.682 53.0036 229.682C52.2363 229.682 51.5016 229.494 50.7995 229.118C50.0975 228.727 49.5179 228.131 49.0608 227.331C48.62 226.514 48.3995 225.478 48.3995 224.22C48.3995 223.045 48.6281 222.057 49.0853 221.257C49.5587 220.457 50.1546 219.861 50.873 219.469C51.5914 219.061 52.3342 218.857 53.1016 218.857ZM73.5305 219.249L73.8243 219.886L71.8652 220.4C71.2121 222.082 70.5427 223.69 69.857 225.225C69.1713 226.743 68.5019 228.261 67.8488 229.78C67.2121 231.298 66.608 232.898 66.0366 234.58L68.0937 235.192L67.8243 235.878C67.1876 235.845 66.6652 235.82 66.257 235.804C65.8652 235.804 65.4652 235.804 65.057 235.804C64.5019 235.804 63.9958 235.804 63.5386 235.804C63.0815 235.82 62.5345 235.845 61.8978 235.878L61.6284 235.192L64.2733 234.506C64.4856 234.131 64.7794 233.551 65.155 232.767C65.5305 232 65.9468 231.094 66.4039 230.049C66.8611 229.02 67.3264 227.943 67.7998 226.816C68.2896 225.674 68.755 224.547 69.1958 223.437C69.6366 222.327 70.0203 221.314 70.3468 220.4L68.5345 219.886L68.7794 219.249C69.3019 219.265 69.7345 219.282 70.0774 219.298C70.4366 219.314 70.8366 219.323 71.2774 219.323C71.7019 219.323 72.0774 219.314 72.4039 219.298C72.7305 219.282 73.106 219.265 73.5305 219.249ZM66.4774 219.249L66.7468 219.886L65.008 220.4C65.2039 221.086 65.3917 221.698 65.5713 222.237C65.7672 222.776 65.9713 223.298 66.1835 223.804C66.3958 224.294 66.6243 224.825 66.8692 225.396C67.1305 225.951 67.4243 226.588 67.7509 227.306L66.5998 230C66.0937 228.792 65.6203 227.69 65.1794 226.694C64.755 225.682 64.3305 224.678 63.906 223.682C63.4815 222.669 63.0162 221.576 62.5101 220.4L60.6243 219.886L60.8692 219.249C61.1631 219.265 61.4243 219.282 61.6529 219.298C61.8815 219.298 62.1509 219.306 62.4611 219.323C62.7713 219.323 63.1713 219.323 63.6611 219.323C64.3631 219.323 64.9019 219.314 65.2774 219.298C65.6529 219.282 66.0529 219.265 66.4774 219.249Z" fill="#FFF9EF"/>
</svg>
