<svg width="89" height="88" viewBox="0 0 89 88" fill="none" xmlns="http://www.w3.org/2000/svg">
<rect x="0.5" width="88" height="88" rx="44" fill="#C95D2D"/>
<mask id="mask0_138_218" style="mask-type:alpha" maskUnits="userSpaceOnUse" x="28" y="28" width="33" height="32">
<rect x="28.5" y="28" width="32" height="32" fill="#D9D9D9"/>
</mask>
<g mask="url(#mask0_138_218)">
<path d="M55.1 56C52.2333 56 49.4389 55.3611 46.7167 54.0833C43.9944 52.8056 41.5833 51.1167 39.4833 49.0167C37.3833 46.9167 35.6944 44.5056 34.4167 41.7833C33.1389 39.0611 32.5 36.2667 32.5 33.4C32.5 33 32.6333 32.6667 32.9 32.4C33.1667 32.1333 33.5 32 33.9 32H39.3C39.6111 32 39.8889 32.1 40.1333 32.3C40.3778 32.5 40.5222 32.7556 40.5667 33.0667L41.4333 37.7333C41.4778 38.0444 41.4722 38.3278 41.4167 38.5833C41.3611 38.8389 41.2333 39.0667 41.0333 39.2667L37.8 42.5333C38.7333 44.1333 39.9056 45.6333 41.3167 47.0333C42.7278 48.4333 44.2778 49.6444 45.9667 50.6667L49.1 47.5333C49.3 47.3333 49.5611 47.1833 49.8833 47.0833C50.2056 46.9833 50.5222 46.9556 50.8333 47L55.4333 47.9333C55.7444 48 56 48.15 56.2 48.3833C56.4 48.6167 56.5 48.8889 56.5 49.2V54.6C56.5 55 56.3667 55.3333 56.1 55.6C55.8333 55.8667 55.5 56 55.1 56ZM36.5333 40L38.7333 37.8L38.1667 34.6667H35.2C35.3111 35.5778 35.4667 36.4778 35.6667 37.3667C35.8667 38.2556 36.1556 39.1333 36.5333 40ZM48.4667 51.9333C49.3333 52.3111 50.2167 52.6111 51.1167 52.8333C52.0167 53.0556 52.9222 53.2 53.8333 53.2667V50.3333L50.7 49.7L48.4667 51.9333Z" fill="#F5F5F5"/>
</g>
</svg>
