<svg width="89" height="88" viewBox="0 0 89 88" fill="none" xmlns="http://www.w3.org/2000/svg">
<rect x="0.5" width="88" height="88" rx="44" fill="#C95D2D"/>
<path fill-rule="evenodd" clip-rule="evenodd" d="M44.5 58.875C52.7152 58.875 59.375 52.2152 59.375 44C59.375 35.7848 52.7152 29.125 44.5 29.125C36.2848 29.125 29.625 35.7848 29.625 44C29.625 46.6678 30.3273 49.1716 31.5571 51.3365L29.625 58.875L37.397 57.0728C39.5077 58.222 41.9276 58.875 44.5 58.875ZM44.5 56.5865C51.4514 56.5865 57.0865 50.9514 57.0865 44C57.0865 37.0486 51.4514 31.4135 44.5 31.4135C37.5486 31.4135 31.9135 37.0486 31.9135 44C31.9135 46.6839 32.7535 49.1717 34.1851 51.2146L33.0577 55.4423L37.3599 54.3667C39.3887 55.7667 41.8486 56.5865 44.5 56.5865Z" fill="white"/>
<path d="M40.7813 37.0942C40.4276 36.3838 39.8851 36.4467 39.337 36.4467C38.3574 36.4467 36.8301 37.62 36.8301 39.8037C36.8301 41.5933 37.6187 43.5522 40.2759 46.4827C42.8404 49.3108 46.21 50.7738 49.0073 50.724C51.8047 50.6742 52.3802 48.267 52.3802 47.454C52.3802 47.0937 52.1566 46.9139 52.0026 46.8651C51.0493 46.4076 49.2912 45.5552 48.8911 45.395C48.4911 45.2348 48.2822 45.4515 48.1524 45.5693C47.7896 45.915 47.0705 46.9339 46.8242 47.1631C46.578 47.3922 46.2109 47.2763 46.0582 47.1896C45.496 46.9641 43.9719 46.2861 42.7569 45.1084C41.2544 43.6518 41.1662 43.1507 40.8831 42.7047C40.6567 42.3478 40.8229 42.1289 40.9058 42.0332C41.2295 41.6596 41.6765 41.0829 41.877 40.7964C42.0774 40.5098 41.9183 40.0747 41.8228 39.8037C41.4121 38.6382 41.0642 37.6625 40.7813 37.0942Z" fill="white"/>
</svg>
